<?xml version="1.0" standalone="no"?>
<!DOCTYPE svg PUBLIC "-//W3C//DTD SVG 20010904//EN"
 "http://www.w3.org/TR/2001/REC-SVG-20010904/DTD/svg10.dtd">
<svg version="1.0" xmlns="http://www.w3.org/2000/svg"
 width="703.000000pt" height="703.000000pt" viewBox="0 0 703.000000 703.000000"
 preserveAspectRatio="xMidYMid meet">
<metadata>
Created by potrace 1.15, written by Peter Selinger 2001-2017
</metadata>
<g transform="translate(0.000000,703.000000) scale(0.100000,-0.100000)"
fill="#1492e6" stroke="none">
<path d="M3066 7023 c-4 -4 -33 -11 -64 -15 -31 -4 -79 -12 -107 -17 -27 -6
-82 -16 -122 -23 -39 -7 -75 -16 -79 -20 -4 -5 -18 -8 -30 -8 -13 0 -43 -6
-66 -14 -24 -7 -70 -21 -103 -30 -33 -10 -68 -21 -77 -27 -10 -5 -25 -9 -33
-9 -8 0 -23 -4 -33 -9 -9 -5 -55 -23 -102 -41 -99 -37 -104 -39 -191 -79 -37
-17 -70 -31 -74 -31 -4 0 -19 -9 -34 -19 -15 -11 -39 -23 -54 -26 -15 -4 -27
-10 -27 -14 0 -4 -20 -15 -45 -26 -25 -11 -45 -23 -45 -27 0 -5 -5 -8 -10 -8
-27 0 -363 -225 -464 -311 -226 -190 -373 -337 -555 -556 -38 -46 -170 -230
-202 -283 -18 -30 -35 -57 -38 -60 -5 -4 -24 -36 -55 -95 -6 -11 -13 -22 -16
-25 -18 -18 -137 -261 -185 -375 -30 -73 -37 -90 -45 -105 -4 -9 -11 -31 -15
-50 -4 -19 -10 -39 -14 -45 -4 -5 -16 -37 -26 -70 -10 -33 -21 -69 -26 -80
-12 -31 -50 -182 -66 -265 -8 -41 -19 -97 -24 -125 -5 -27 -15 -77 -21 -110
-15 -85 -15 -940 0 -1020 23 -116 31 -161 42 -225 6 -36 15 -73 20 -82 6 -10
10 -27 10 -38 0 -10 6 -39 14 -62 7 -24 19 -63 26 -88 21 -76 44 -144 51 -155
4 -5 10 -27 14 -47 4 -21 11 -38 16 -38 5 0 9 -11 9 -25 0 -14 4 -25 9 -25 5
0 12 -14 16 -30 4 -17 13 -43 20 -58 50 -102 85 -182 85 -190 0 -6 3 -12 8
-14 4 -2 17 -23 29 -48 33 -67 90 -165 141 -244 26 -39 51 -78 57 -87 22 -35
50 -75 62 -87 7 -7 13 -17 13 -21 0 -4 8 -16 18 -27 9 -10 36 -44 59 -74 23
-30 52 -66 65 -80 13 -14 36 -41 52 -60 66 -81 271 -284 375 -370 29 -25 59
-50 65 -56 6 -5 47 -37 91 -69 44 -33 82 -62 85 -65 10 -10 206 -138 240 -156
19 -10 37 -21 40 -24 17 -17 364 -190 382 -190 4 0 31 -11 60 -24 29 -13 78
-32 108 -42 30 -10 60 -21 65 -25 6 -4 26 -10 45 -14 19 -4 40 -11 45 -15 6
-4 21 -10 35 -13 14 -3 52 -13 85 -22 54 -15 98 -25 235 -56 25 -6 89 -16 144
-24 54 -7 103 -18 109 -24 8 -8 146 -11 449 -11 360 0 443 3 461 14 12 8 60
17 107 21 47 4 90 11 95 15 6 4 26 10 45 13 59 8 154 28 175 37 11 5 36 12 55
15 62 12 215 62 262 86 10 5 23 9 29 9 6 0 27 7 47 16 21 9 53 23 72 31 80 33
209 91 234 105 11 5 51 27 91 48 130 69 471 291 505 330 3 3 19 16 35 29 144
110 426 392 537 537 12 16 25 31 28 34 26 25 214 298 254 370 11 19 22 37 25
40 17 15 171 324 171 344 0 9 4 16 9 16 5 0 12 12 15 26 4 14 15 45 25 68 32
72 81 207 81 222 0 8 4 22 9 32 13 25 41 121 41 141 0 10 3 21 7 25 5 4 14 38
21 74 7 37 17 87 23 112 5 25 16 89 24 144 7 54 18 103 24 109 15 15 15 904 0
909 -6 2 -17 48 -24 103 -8 55 -18 120 -24 145 -6 25 -15 72 -21 105 -6 33
-15 68 -20 77 -6 10 -10 26 -10 35 0 16 -17 74 -40 138 -4 11 -16 47 -26 80
-10 33 -24 71 -31 85 -7 14 -13 32 -13 41 0 8 -4 19 -8 25 -5 5 -15 25 -22 44
-114 301 -356 698 -590 965 -99 113 -290 304 -360 361 -19 16 -42 36 -50 45
-21 22 -270 209 -279 209 -4 0 -16 8 -27 18 -20 18 -150 102 -159 102 -2 0
-33 17 -67 38 -35 21 -126 69 -203 106 -77 37 -148 71 -157 77 -10 5 -23 9
-29 9 -6 0 -27 7 -47 16 -58 25 -73 31 -132 50 -30 10 -59 21 -65 25 -5 4 -28
10 -50 14 -22 4 -44 11 -50 15 -5 4 -21 10 -35 13 -14 3 -54 13 -90 22 -90 22
-212 47 -375 77 -69 12 -937 22 -949 11z m664 -673 c206 -16 371 -45 560 -99
19 -5 53 -15 75 -21 22 -6 49 -15 60 -19 11 -5 43 -16 70 -26 56 -19 62 -21
160 -65 249 -112 521 -280 683 -423 153 -135 208 -189 312 -308 99 -113 105
-121 167 -209 29 -41 57 -79 61 -85 20 -26 121 -196 147 -250 16 -33 33 -61
37 -63 4 -2 8 -9 8 -15 0 -7 14 -39 30 -72 16 -33 30 -68 30 -77 0 -10 5 -18
10 -18 6 0 10 -9 10 -19 0 -11 4 -22 9 -26 5 -3 13 -20 17 -37 3 -18 10 -39
15 -48 11 -23 39 -116 39 -134 0 -9 4 -16 9 -16 5 0 12 -24 16 -52 4 -29 11
-57 15 -63 4 -5 11 -26 14 -45 27 -136 38 -204 46 -265 5 -38 11 -79 13 -90 3
-11 8 -90 11 -175 9 -194 -8 -414 -48 -640 -24 -138 -28 -154 -36 -165 -4 -5
-10 -29 -14 -53 -3 -24 -10 -51 -15 -60 -5 -9 -17 -44 -27 -77 -9 -33 -20 -64
-24 -70 -4 -5 -10 -22 -14 -38 -4 -15 -17 -51 -30 -80 -13 -28 -30 -69 -37
-89 -7 -21 -17 -38 -21 -38 -4 0 -8 -6 -8 -13 0 -15 -80 -174 -108 -215 -10
-15 -22 -34 -26 -42 -14 -30 -79 -130 -111 -171 -11 -14 -27 -36 -35 -49 -8
-12 -28 -39 -45 -60 -16 -21 -46 -57 -65 -81 -37 -47 -270 -283 -333 -338 -60
-52 -295 -221 -307 -221 -5 0 -10 -3 -10 -8 0 -4 -17 -16 -37 -27 -21 -11 -40
-22 -43 -25 -11 -11 -92 -54 -210 -111 -132 -63 -138 -66 -210 -94 -25 -10
-54 -21 -65 -25 -55 -22 -220 -70 -241 -70 -12 0 -25 -4 -28 -9 -6 -9 -27 -14
-146 -32 -41 -6 -84 -15 -95 -20 -21 -9 -39 -10 -289 -29 -239 -19 -583 11
-811 69 -22 5 -62 15 -90 21 -27 6 -58 15 -67 20 -10 6 -27 10 -37 10 -11 0
-22 4 -25 9 -3 5 -23 12 -43 16 -21 4 -42 10 -48 14 -5 4 -28 13 -50 20 -41
14 -61 22 -175 73 -92 41 -114 52 -120 58 -3 3 -23 14 -45 25 -78 38 -261 155
-356 227 -204 154 -416 363 -550 544 -24 32 -46 61 -49 64 -25 24 -161 244
-193 310 -6 14 -14 27 -17 30 -9 8 -40 77 -40 89 0 6 -4 11 -10 11 -5 0 -10 6
-10 13 0 6 -11 34 -25 61 -14 27 -25 54 -25 59 0 5 -7 25 -16 45 -9 21 -20 46
-25 57 -8 19 -53 157 -78 240 -12 40 -28 113 -37 170 -3 17 -9 39 -14 50 -19
41 -49 373 -49 535 -1 147 19 347 55 565 3 22 10 45 14 50 4 6 11 32 15 59 3
27 10 58 15 70 4 11 16 48 25 81 9 33 20 67 24 75 5 9 12 31 16 50 4 19 11 41
15 50 4 8 12 26 18 40 6 14 18 43 27 65 69 164 225 441 317 560 102 134 123
160 163 205 49 56 231 238 265 265 14 11 57 46 95 78 89 73 85 70 120 93 17
10 32 21 35 24 28 34 492 290 524 290 5 0 22 6 39 14 89 38 125 50 232 81 33
9 69 21 80 26 11 4 43 13 70 18 28 6 64 13 80 16 17 3 46 10 65 16 129 36 519
56 750 39z"/>
<path d="M2240 5278 c-103 -7 -128 -12 -145 -29 -19 -19 -20 -35 -23 -632 -3
-571 5 -846 25 -882 5 -7 31 -30 58 -51 28 -21 88 -70 135 -109 47 -40 123
-102 170 -140 71 -56 190 -158 234 -200 31 -30 84 -64 108 -70 20 -5 29 -2 37
13 13 24 14 484 4 1444 l-6 645 -93 12 c-106 13 -321 12 -504 -1z"/>
<path d="M4213 5260 c-40 -3 -76 -10 -80 -14 -17 -17 -29 -1417 -16 -1864 7
-258 8 -261 66 -227 27 16 129 101 282 234 121 104 167 143 220 181 33 23 92
75 130 114 l71 71 12 86 c17 121 17 1303 0 1358 -21 68 -38 71 -346 70 -147
-1 -300 -5 -339 -9z"/>
<path d="M3103 4288 c-48 -51 -73 -86 -73 -106 0 -10 761 -14 835 -4 71 10 71
32 -1 105 l-56 57 -327 0 -327 0 -51 -52z"/>
<path d="M2965 4094 c-19 -14 -20 -27 -20 -224 0 -114 2 -210 5 -213 3 -3 60
-7 126 -9 l122 -4 -5 225 c-4 149 -10 229 -17 233 -22 15 -190 8 -211 -8z"/>
<path d="M3320 4092 c-32 -16 -36 -21 -43 -77 -4 -33 -4 -128 -1 -211 l6 -151
51 -5 c29 -3 120 -2 202 1 l150 6 3 183 c3 223 0 239 -53 258 -60 21 -270 18
-315 -4z"/>
<path d="M3792 4094 c-21 -15 -22 -20 -22 -212 0 -108 3 -207 6 -219 8 -30 30
-33 144 -20 l100 11 0 228 0 228 -103 0 c-77 0 -108 -4 -125 -16z"/>
<path d="M5197 3784 c-90 -18 -186 -67 -310 -158 -101 -74 -128 -97 -217 -180
-25 -23 -92 -81 -150 -130 -58 -48 -127 -107 -154 -130 -27 -22 -77 -61 -110
-86 -34 -25 -66 -49 -73 -55 -6 -5 -27 -21 -46 -35 -44 -31 -45 -40 -54 -422
l-6 -288 22 0 c28 0 68 28 216 149 59 48 226 191 265 228 25 23 59 52 75 64
17 13 32 26 35 29 26 27 240 189 278 209 12 6 33 23 48 36 15 14 61 42 103 62
71 35 82 37 161 36 105 -1 177 -26 304 -107 50 -31 95 -56 100 -56 24 1 81 64
201 223 70 92 140 177 156 189 16 12 29 30 29 40 0 16 -62 62 -144 106 -17 9
-45 26 -61 38 -76 54 -348 192 -425 217 -52 16 -155 38 -169 36 -3 -1 -37 -7
-74 -15z"/>
<path d="M1578 3780 c-50 -9 -261 -108 -366 -172 -34 -21 -65 -38 -67 -38 -5
0 -79 -46 -100 -63 -5 -4 -36 -26 -67 -48 -32 -22 -58 -45 -58 -50 0 -17 21
-51 67 -109 24 -30 50 -62 56 -70 7 -8 40 -53 74 -98 61 -83 131 -163 152
-177 13 -7 89 27 136 60 31 22 114 63 172 85 54 20 170 15 238 -11 101 -37
267 -152 459 -318 28 -24 62 -53 76 -65 97 -82 160 -135 190 -163 62 -56 83
-74 176 -149 50 -40 97 -80 104 -89 7 -8 23 -15 36 -15 l24 0 0 339 0 339
-106 83 c-58 46 -115 91 -125 101 -11 9 -39 31 -61 50 -48 38 -177 147 -196
165 -7 7 -34 29 -60 50 -47 38 -101 85 -155 135 -89 83 -199 160 -282 198 -49
23 -79 29 -165 33 -58 3 -126 2 -152 -3z"/>
<path d="M3220 3543 c-28 -10 -40 -37 -40 -89 0 -80 14 -102 69 -110 67 -10
470 3 509 17 32 11 32 11 32 77 0 37 -4 72 -8 78 -15 24 -117 34 -330 33 -119
0 -224 -3 -232 -6z"/>
<path d="M3055 3180 c-27 -38 -52 -70 -57 -70 -4 0 -8 -15 -8 -33 0 -26 6 -36
25 -45 31 -14 707 -26 860 -15 85 6 110 11 113 23 2 14 -83 137 -130 188 l-21
22 -367 0 -367 0 -48 -70z"/>
<path d="M3062 2941 c-50 -4 -95 -11 -98 -14 -4 -4 -11 -53 -16 -109 -10 -111
-5 -749 7 -784 6 -20 16 -21 148 -27 78 -4 316 -7 530 -7 l387 0 0 428 c0 235
-3 444 -6 464 -4 20 -14 40 -23 44 -22 10 -814 14 -929 5z"/>
<path d="M3143 1916 c-70 -14 -93 -29 -93 -60 1 -60 35 -65 511 -65 l346 -1 6
41 c7 55 1 67 -40 84 -46 19 -633 20 -730 1z"/>
<path d="M3195 1714 c-12 -12 -15 -31 -13 -73 l3 -56 293 -3 c331 -3 306 -9
307 83 l0 50 -55 7 c-30 3 -159 6 -287 7 -201 1 -234 -1 -248 -15z"/>
</g>
</svg>
